<?xml version="1.0" encoding="UTF-8" standalone="no"?>
<!-- Created with Inkscape (http://www.inkscape.org/) -->
<svg xmlns:dc="http://purl.org/dc/elements/1.1/" xmlns:cc="http://creativecommons.org/ns#" xmlns:rdf="http://www.w3.org/1999/02/22-rdf-syntax-ns#" xmlns:svg="http://www.w3.org/2000/svg" xmlns="http://www.w3.org/2000/svg" xmlns:sodipodi="http://sodipodi.sourceforge.net/DTD/sodipodi-0.dtd" xmlns:inkscape="http://www.inkscape.org/namespaces/inkscape" width="1570.2314" height="1000" id="svg2" version="1.1" inkscape:version="0.48.2 r9819" sodipodi:docname="Logo_Reseau_Polytech_1.svg">
  <defs id="defs4">
    <clipPath id="clipPath6061" clipPathUnits="userSpaceOnUse">
      <path id="path6063" d="m 0,0 1020.472,0 0,419.528 L 0,419.528 0,0 z" inkscape:connector-curvature="0"/>
    </clipPath>
    <clipPath id="clipPath6049" clipPathUnits="userSpaceOnUse">
      <path id="path6051" d="m 959.283,349.856 -4.346,0 0,-53.649 4.346,0 29.223,0 0,53.649 -29.223,0 z" inkscape:connector-curvature="0"/>
    </clipPath>
    <clipPath id="clipPath6037" clipPathUnits="userSpaceOnUse">
      <path id="path6039" d="m 947.935,316.286 1.044,0 0,33.57 -1.044,0 0,-33.57 z" inkscape:connector-curvature="0"/>
    </clipPath>
    <clipPath id="clipPath6025" clipPathUnits="userSpaceOnUse">
      <path id="path6027" d="m 947.935,296.207 1.044,0 0,20.079 -1.044,0 0,-20.079 z" inkscape:connector-curvature="0"/>
    </clipPath>
    <clipPath id="clipPath6013" clipPathUnits="userSpaceOnUse">
      <path id="path6015" d="m 947.935,356.858 0,-7.002 1.044,0 0,-33.57 0,-20.079 -1.044,0 0,-10.387 11.348,0 0,10.387 -4.346,0 0,53.649 4.346,0 0,7.002 -11.348,0 z" inkscape:connector-curvature="0"/>
    </clipPath>
    <clipPath id="clipPath6001" clipPathUnits="userSpaceOnUse">
      <path id="path6003" d="m 959.283,356.858 0,-7.002 29.223,0 0,-53.649 -29.223,0 0,-10.387 39.529,0 0,71.038 -39.529,0 z m -11.348,0 11.348,0 -11.348,0 z" inkscape:connector-curvature="0"/>
    </clipPath>
    <clipPath id="clipPath5981" clipPathUnits="userSpaceOnUse">
      <path id="path5983" d="m 0,0 1020.472,0 0,419.528 L 0,419.528 0,0 z" inkscape:connector-curvature="0"/>
    </clipPath>
    <clipPath id="clipPath5969" clipPathUnits="userSpaceOnUse">
      <path id="path5971" d="m 908.406,356.858 0,-71.038 50.877,0 -11.348,0 0,10.387 -32.527,0 0,53.649 32.527,0 0,7.002 -39.529,0 z" inkscape:connector-curvature="0"/>
    </clipPath>
    <clipPath id="clipPath5947" clipPathUnits="userSpaceOnUse">
      <path id="path5949" d="m 0,0 1020.472,0 0,419.528 L 0,419.528 0,0 z" inkscape:connector-curvature="0"/>
    </clipPath>
    <clipPath id="clipPath5935" clipPathUnits="userSpaceOnUse">
      <path id="path5937" d="m 857.899,349.856 -4.348,0 0,-53.649 4.348,0 29.222,0 0,53.649 -29.222,0 z" inkscape:connector-curvature="0"/>
    </clipPath>
    <clipPath id="clipPath5923" clipPathUnits="userSpaceOnUse">
      <path id="path5925" d="m 846.549,316.286 1.044,0 0,33.57 -1.044,0 0,-33.57 z" inkscape:connector-curvature="0"/>
    </clipPath>
    <clipPath id="clipPath5911" clipPathUnits="userSpaceOnUse">
      <path id="path5913" d="m 846.549,296.207 1.044,0 0,20.079 -1.044,0 0,-20.079 z" inkscape:connector-curvature="0"/>
    </clipPath>
    <clipPath id="clipPath5899" clipPathUnits="userSpaceOnUse">
      <path id="path5901" d="m 846.549,356.858 0,-7.002 1.044,0 0,-33.57 0,-20.079 -1.044,0 0,-10.387 11.35,0 0,10.387 -4.348,0 0,53.649 4.348,0 0,7.002 -11.35,0 z" inkscape:connector-curvature="0"/>
    </clipPath>
    <clipPath id="clipPath5887" clipPathUnits="userSpaceOnUse">
      <path id="path5889" d="m 857.899,356.858 0,-7.002 29.222,0 0,-53.649 -29.222,0 0,-10.387 39.527,0 0,71.038 -39.527,0 z m -11.35,0 11.35,0 -11.35,0 z" inkscape:connector-curvature="0"/>
    </clipPath>
    <clipPath id="clipPath5869" clipPathUnits="userSpaceOnUse">
      <path id="path5871" d="m 0,0 1020.472,0 0,419.528 L 0,419.528 0,0 z" inkscape:connector-curvature="0"/>
    </clipPath>
    <clipPath id="clipPath5857" clipPathUnits="userSpaceOnUse">
      <path id="path5859" d="m 807.022,356.858 0,-71.038 50.877,0 -11.35,0 0,10.387 -32.525,0 0,53.649 32.525,0 0,7.002 -39.527,0 z" inkscape:connector-curvature="0"/>
    </clipPath>
    <clipPath id="clipPath5831" clipPathUnits="userSpaceOnUse">
      <path id="path5833" d="m 0,0 1020.472,0 0,419.528 L 0,419.528 0,0 z" inkscape:connector-curvature="0"/>
    </clipPath>
    <clipPath id="clipPath5819" clipPathUnits="userSpaceOnUse">
      <path id="path5821" d="m 756.513,349.856 -4.347,0 0,-53.649 4.347,0 29.223,0 0,53.649 -29.223,0 z" inkscape:connector-curvature="0"/>
    </clipPath>
    <clipPath id="clipPath5807" clipPathUnits="userSpaceOnUse">
      <path id="path5809" d="m 745.164,316.286 1.044,0 0,33.57 -1.044,0 0,-33.57 z" inkscape:connector-curvature="0"/>
    </clipPath>
    <clipPath id="clipPath5795" clipPathUnits="userSpaceOnUse">
      <path id="path5797" d="m 745.164,296.207 1.044,0 0,20.079 -1.044,0 0,-20.079 z" inkscape:connector-curvature="0"/>
    </clipPath>
    <clipPath id="clipPath5783" clipPathUnits="userSpaceOnUse">
      <path id="path5785" d="m 755.757,354.221 0.756,0 0,2.637 -0.756,0 0,-2.637 z" inkscape:connector-curvature="0"/>
    </clipPath>
    <clipPath id="clipPath5771" clipPathUnits="userSpaceOnUse">
      <path id="path5773" d="m 745.164,356.858 0,-7.002 1.044,0 0,-33.57 0,-20.079 -1.044,0 0,-10.387 11.349,0 0,10.387 -4.347,0 0,53.649 4.347,0 0,4.365 -0.756,0 0,2.637 -10.593,0 z" inkscape:connector-curvature="0"/>
    </clipPath>
    <clipPath id="clipPath5759" clipPathUnits="userSpaceOnUse">
      <path id="path5761" d="m 765.045,354.221 8.442,0 0,2.637 -8.442,0 0,-2.637 z" inkscape:connector-curvature="0"/>
    </clipPath>
    <clipPath id="clipPath5747" clipPathUnits="userSpaceOnUse">
      <path id="path5749" d="m 756.513,354.221 7.686,0 0,2.637 -7.686,0 0,-2.637 z m -0.756,2.637 0.756,0 -0.756,0 z" inkscape:connector-curvature="0"/>
    </clipPath>
    <clipPath id="clipPath5735" clipPathUnits="userSpaceOnUse">
      <path id="path5737" d="m 773.487,356.858 0,-2.637 -8.442,0 0,2.637 -0.846,0 0,-2.637 -7.686,0 0,-4.365 29.223,0 0,-53.649 -29.223,0 0,-10.387 39.528,0 0,71.038 -22.554,0 z" inkscape:connector-curvature="0"/>
    </clipPath>
    <clipPath id="clipPath5707" clipPathUnits="userSpaceOnUse">
      <path id="path5709" d="m 0,0 1020.472,0 0,419.528 L 0,419.528 0,0 z" inkscape:connector-curvature="0"/>
    </clipPath>
    <clipPath id="clipPath5695" clipPathUnits="userSpaceOnUse">
      <path id="path5697" d="m 705.636,356.858 0,-71.038 50.877,0 -11.349,0 0,10.387 -32.526,0 0,53.649 32.526,0 0,7.002 -39.528,0 z" inkscape:connector-curvature="0"/>
    </clipPath>
    <clipPath id="clipPath3219" clipPathUnits="userSpaceOnUse">
      <path id="path3221" d="m 0,0 1020.472,0 0,419.528 L 0,419.528 0,0 z" inkscape:connector-curvature="0"/>
    </clipPath>
    <clipPath id="clipPath3181" clipPathUnits="userSpaceOnUse">
      <path id="path3183" d="m 0,0 1020.472,0 0,419.528 L 0,419.528 0,0 z" inkscape:connector-curvature="0"/>
    </clipPath>
    <clipPath id="clipPath3143" clipPathUnits="userSpaceOnUse">
      <path id="path3145" d="m 0,0 1020.472,0 0,419.528 L 0,419.528 0,0 z" inkscape:connector-curvature="0"/>
    </clipPath>
    <clipPath id="clipPath3105" clipPathUnits="userSpaceOnUse">
      <path id="path3107" d="m 0,0 1020.472,0 0,419.528 L 0,419.528 0,0 z" inkscape:connector-curvature="0"/>
    </clipPath>
    <clipPath id="clipPath3067" clipPathUnits="userSpaceOnUse">
      <path id="path3069" d="m 0,0 1020.472,0 0,419.528 L 0,419.528 0,0 z" inkscape:connector-curvature="0"/>
    </clipPath>
    <clipPath id="clipPath3029" clipPathUnits="userSpaceOnUse">
      <path id="path3031" d="m 0,0 1020.472,0 0,419.528 L 0,419.528 0,0 z" inkscape:connector-curvature="0"/>
    </clipPath>
  </defs>
  <sodipodi:namedview id="base" pagecolor="#ffffff" bordercolor="#666666" borderopacity="1.0" inkscape:pageopacity="0.0" inkscape:pageshadow="2" inkscape:zoom="1.4" inkscape:cx="306.69884" inkscape:cy="204.51117" inkscape:document-units="px" inkscape:current-layer="g10210" showgrid="false" inkscape:window-width="1366" inkscape:window-height="706" inkscape:window-x="-8" inkscape:window-y="-8" inkscape:window-maximized="1" fit-margin-top="0" fit-margin-left="0" fit-margin-right="0" fit-margin-bottom="0"/>
  <metadata id="metadata7">
    <rdf:RDF>
      <cc:Work rdf:about="">
        <dc:format>image/svg+xml</dc:format>
        <dc:type rdf:resource="http://purl.org/dc/dcmitype/StillImage"/>
        <dc:title/>
      </cc:Work>
    </rdf:RDF>
  </metadata>
  <g inkscape:label="Calque 1" inkscape:groupmode="layer" id="layer1" transform="translate(714.93785,65.434748)">
    <g transform="matrix(1.25,0,0,-1.25,-714.93786,934.56543)" inkscape:label="POLYTECH_MINI-CHARTE_GRAPHIQUE" id="g2993">
      <g id="g10210" transform="translate(-92.1427,-239.0776)">
        <g id="g10232" transform="matrix(7.7030327,0,0,7.7030327,-617.63552,-1602.5456)">
          <g transform="translate(92.1427,239.1888)" id="g3227">
            <path id="path3229" style="fill:#094270;fill-opacity:1;fill-rule:nonzero;stroke:none" d="m 0,0 0,14.217 0,0.597 8.308,0 c 1.572,0.011 2.726,-0.507 3.384,-1.427 0.658,-0.913 0.82,-2.069 0.824,-3.291 C 12.512,9.477 12.526,8.332 11.98,7.267 11.445,6.186 10.22,5.279 8.226,5.303 l -5.318,0 L 2.908,0 0,0 z m 2.908,7.857 3.844,0 0.092,0 C 7.675,7.854 8.327,7.868 8.729,7.98 9.133,8.109 9.266,8.207 9.436,8.594 9.54,8.859 9.61,9.285 9.608,9.895 9.621,11.178 9.44,11.777 9.249,11.945 9.095,12.134 8.612,12.27 7.561,12.26 l -4.653,0 0,-4.403 z" inkscape:connector-curvature="0"/>
          </g>
          <g transform="translate(119.8081,254.1107)" id="g3231">
            <path id="path3233" style="fill:#094270;fill-opacity:1;fill-rule:nonzero;stroke:none" d="m 0,0 c 1.934,-0.022 3.324,-0.299 4.28,-1.183 0.95,-0.899 1.236,-2.233 1.236,-3.989 l 0,-4.851 c 0.003,-1.67 -0.334,-2.981 -1.298,-3.852 -0.963,-0.859 -2.352,-1.154 -4.223,-1.158 l -2.04,0 c -1.872,0.004 -3.261,0.299 -4.225,1.158 -0.961,0.871 -1.297,2.182 -1.295,3.852 l 0,4.851 c 0,1.756 0.285,3.09 1.233,3.989 0.957,0.884 2.347,1.161 4.287,1.184 l 2.04,0 m -2.04,-2.554 c -1.245,0.01 -1.882,-0.168 -2.143,-0.443 -0.281,-0.252 -0.477,-0.882 -0.471,-2.176 l 0,-4.851 c 10e-4,-1.301 0.247,-1.832 0.551,-2.069 0.299,-0.262 0.976,-0.385 2.063,-0.385 l 2.034,0 c 1.094,0 1.77,0.123 2.071,0.385 0.302,0.237 0.548,0.768 0.548,2.069 l 0,4.851 c 0.008,1.294 -0.191,1.924 -0.47,2.176 -0.26,0.275 -0.899,0.453 -2.143,0.443 l -2.04,0" inkscape:connector-curvature="0"/>
          </g>
          <g transform="translate(134.4659,239.1888)" id="g3235">
            <path id="path3237" style="fill:#094270;fill-opacity:1;fill-rule:nonzero;stroke:none" d="m 0,0 0,14.814 2.91,0 0,-12.261 7.712,0 L 10.622,0 0,0 z" inkscape:connector-curvature="0"/>
          </g>
          <g transform="translate(156.148,239.1898)" id="g3239">
            <path id="path3241" style="fill:#094270;fill-opacity:1;fill-rule:nonzero;stroke:none" d="m 0,0 0,6.091 -6.102,8.722 3.454,0 4.17,-5.935 4.172,5.935 3.515,0 L 2.908,6.087 2.908,0 0,0 z" inkscape:connector-curvature="0"/>
          </g>
          <g transform="translate(176.5338,239.1898)" id="g3243">
            <path id="path3245" style="fill:#094270;fill-opacity:1;fill-rule:nonzero;stroke:none" d="m 0,0 0,12.261 -4.905,0 0,2.552 12.717,0 0,-2.554 -4.904,0.002 0,-11.668 L 2.908,0 0,0 z" inkscape:connector-curvature="0"/>
          </g>
          <g transform="translate(192.4707,239.1888)" id="g3247">
            <path id="path3249" style="fill:#094270;fill-opacity:1;fill-rule:nonzero;stroke:none" d="m 0,0 0,14.814 10.922,0 0,-2.554 -8.013,0 0,-3.44 7.672,0 0,-2.463 -7.672,0 0,-3.804 8.013,0 L 10.922,0 0,0 z" inkscape:connector-curvature="0"/>
          </g>
          <g transform="translate(217.3096,239.0794)" id="g3251">
            <path id="path3253" style="fill:#094270;fill-opacity:1;fill-rule:nonzero;stroke:none" d="M 0,0 -0.009,0 C -1.496,0 -2.765,0.427 -3.654,1.291 -4.545,2.15 -5.001,3.406 -4.998,4.883 l 0,5.269 c -0.025,2.045 0.773,3.438 2.101,4.112 1.303,0.677 2.953,0.761 4.814,0.768 l 1.413,0 c 1.649,-10e-4 2.866,-0.315 3.682,-1.13 0.805,-0.824 1.052,-1.987 1.052,-3.389 l 0,-1.031 -2.907,0 0,0.594 0,0.383 c 0.007,0.924 -0.131,1.413 -0.341,1.616 -0.185,0.215 -0.664,0.407 -1.729,0.403 l -0.968,0 C 0.802,12.48 -0.172,12.42 -0.809,12.247 -1.452,12.061 -1.702,11.853 -1.891,11.459 -2.016,11.186 -2.092,10.778 -2.09,10.205 l 0,-3.742 C -2.092,5.307 -2.064,4.41 -1.913,3.818 -1.745,3.22 -1.564,2.978 -1.122,2.773 -0.815,2.639 -0.348,2.553 0.321,2.555 l 2.041,0 c 1.009,-0.004 1.733,0.052 2.175,0.187 0.442,0.147 0.559,0.264 0.69,0.548 0.08,0.198 0.132,0.513 0.132,0.956 l 0,1.686 2.908,0 0,-1.869 C 8.294,2.376 7.59,1.182 6.453,0.629 5.338,0.07 3.958,0.005 2.422,0 L 0,0" inkscape:connector-curvature="0"/>
          </g>
          <g transform="translate(244.8917,239.1888)" id="g3255">
            <path id="path3257" style="fill:#094270;fill-opacity:1;fill-rule:nonzero;stroke:none" d="m 0,0 -0.001,6.266 -7.671,0 0,-6.266 -2.908,0 0,14.814 2.909,0 -10e-4,-5.994 7.671,0 0,5.994 2.908,0 L 2.907,0 0,0 z" inkscape:connector-curvature="0"/>
          </g>
          <g transform="translate(253.2144,256.0062)" id="g3259">
            <path id="path3261" style="fill:#094270;fill-opacity:1;fill-rule:nonzero;stroke:none" d="M 0,0 C 1.06,0 2.005,-0.763 2.005,-1.953 2.005,-3.14 1.06,-3.906 0,-3.906 c -1.061,0 -2.007,0.766 -2.007,1.953 C -2.007,-0.763 -1.061,0 0,0 m 0,-3.489 c 0.809,0 1.472,0.648 1.472,1.536 0,0.893 -0.663,1.536 -1.472,1.536 -0.82,0 -1.474,-0.643 -1.474,-1.536 0,-0.888 0.654,-1.536 1.474,-1.536 m 1.023,1.212 C 0.94,-2.8 0.538,-3.103 0.072,-3.103 c -0.677,0 -1.124,0.506 -1.124,1.159 0,0.675 0.42,1.171 1.115,1.171 0.479,0 0.872,-0.283 0.945,-0.81 l -0.408,0 c -0.052,0.246 -0.266,0.392 -0.537,0.392 -0.398,0 -0.611,-0.313 -0.611,-0.742 0,-0.406 0.239,-0.752 0.62,-0.752 0.288,0 0.497,0.157 0.528,0.408 l 0.423,0 z" inkscape:connector-curvature="0"/>
          </g>
          <g transform="translate(169.9175,342.9329)" id="g3263">
            <path id="path3265" style="fill:#00adef;fill-opacity:1;fill-rule:nonzero;stroke:none" d="m 0,0 c -17.952,-0.004 -32.912,-12.771 -36.307,-29.723 l 15.154,0 c 1.115,3.235 2.949,6.131 5.329,8.516 4.073,4.062 9.622,6.551 15.824,6.555 6.203,-0.004 11.752,-2.493 15.824,-6.555 4.063,-4.072 6.553,-9.622 6.556,-15.824 -0.003,-6.204 -2.493,-11.752 -6.556,-15.826 -4.072,-4.061 -9.621,-6.551 -15.824,-6.554 -6.202,0.003 -11.751,2.493 -15.824,6.554 -2.358,2.365 -4.181,5.23 -5.3,8.427 l -15.15,0.004 0,-0.004 0,-18.67 c 0,-15.916 13.773,-14.978 13.773,-14.978 l 0.008,11.632 c 6.235,-4.777 14.031,-7.617 22.493,-7.618 20.454,0.005 37.028,16.578 37.032,37.033 C 37.028,-16.576 20.454,-0.004 0,0" inkscape:connector-curvature="0"/>
          </g>
        </g>
      </g>
      <g transform="translate(217.3799,50.1956)" id="g5059"/>
      <g transform="translate(965.7833,177.5843)" id="g5653">
        <path id="path5655" style="fill:#ffffff;fill-opacity:1;fill-rule:nonzero;stroke:none" d="m 0,0 c 0.301,0 0.57,-0.219 0.57,-0.556 0,-0.338 -0.269,-0.555 -0.57,-0.555 -0.301,0 -0.569,0.217 -0.569,0.555 C -0.569,-0.219 -0.301,0 0,0 m 0,-0.992 c 0.229,0 0.418,0.182 0.418,0.436 0,0.252 -0.189,0.437 -0.418,0.437 -0.232,0 -0.419,-0.185 -0.419,-0.437 0,-0.254 0.187,-0.436 0.419,-0.436 m 0.29,0.344 c -0.022,-0.15 -0.138,-0.236 -0.269,-0.236 -0.194,0 -0.32,0.146 -0.32,0.33 0,0.192 0.119,0.332 0.317,0.332 0.136,0 0.248,-0.079 0.268,-0.229 l -0.117,0 -0.151,0.111 c -0.114,0 -0.173,-0.089 -0.173,-0.21 0,-0.116 0.068,-0.215 0.176,-0.215 l 0.148,0.117 0.121,0 z" inkscape:connector-curvature="0"/>
      </g>
      <g transform="translate(941.1338,174.2298)" id="g5657">
        <path id="path5659" style="fill:#ffffff;fill-opacity:1;fill-rule:nonzero;stroke:none" d="m 0,0 0,2.146 0,0.093 1.255,0 C 1.493,2.241 1.667,2.161 1.768,2.021 1.866,1.885 1.891,1.71 1.893,1.526 1.891,1.431 1.893,1.259 1.811,1.099 1.731,0.936 1.544,0.798 1.243,0.802 l -0.802,0 L 0.441,0 0,0 z m 0.441,1.187 0.581,0 0.013,0 c 0.126,0 0.224,0.002 0.285,0.021 l 0.108,0.09 C 1.441,1.339 1.452,1.402 1.452,1.495 1.454,1.689 1.428,1.779 1.398,1.807 1.374,1.833 1.302,1.853 1.145,1.852 l -0.704,0 0,-0.665 z" inkscape:connector-curvature="0"/>
      </g>
      <g transform="translate(945.3155,176.4857)" id="g5661">
        <path id="path5663" style="fill:#ffffff;fill-opacity:1;fill-rule:nonzero;stroke:none" d="m 0,0 c 0.291,-0.005 0.5,-0.047 0.646,-0.179 0.143,-0.136 0.186,-0.34 0.186,-0.603 l 0,-0.734 c 0,-0.251 -0.051,-0.451 -0.196,-0.583 -0.144,-0.129 -0.355,-0.173 -0.638,-0.173 l -0.308,0 c -0.283,0 -0.492,0.044 -0.637,0.173 -0.146,0.132 -0.198,0.332 -0.198,0.583 l 0,0.734 c 0,0.263 0.043,0.467 0.187,0.603 0.146,0.132 0.355,0.174 0.648,0.179 l 0.308,0 M -0.31,-0.388 c -0.188,0.002 -0.285,-0.024 -0.324,-0.063 -0.043,-0.04 -0.072,-0.136 -0.072,-0.331 l 0,-0.734 c 0,-0.197 0.039,-0.276 0.085,-0.311 0.045,-0.039 0.147,-0.058 0.311,-0.058 l 0.308,0 c 0.164,0 0.267,0.019 0.312,0.058 0.047,0.035 0.084,0.114 0.084,0.311 l 0,0.734 c 0.002,0.195 -0.031,0.291 -0.072,0.331 -0.039,0.039 -0.135,0.065 -0.324,0.063 l -0.308,0" inkscape:connector-curvature="0"/>
      </g>
      <g transform="translate(947.5285,174.2298)" id="g5665">
        <path id="path5667" style="fill:#ffffff;fill-opacity:1;fill-rule:nonzero;stroke:none" d="m 0,0 0,2.239 0.44,0 0,-1.851 1.165,0 L 1.605,0 0,0 z" inkscape:connector-curvature="0"/>
      </g>
      <g transform="translate(950.8057,174.2298)" id="g5669">
        <path id="path5671" style="fill:#ffffff;fill-opacity:1;fill-rule:nonzero;stroke:none" d="m 0,0 0,0.923 -0.923,1.316 0.521,0 0.631,-0.897 0.629,0.897 0.532,0 L 0.439,0.921 0.439,0 0,0 z" inkscape:connector-curvature="0"/>
      </g>
      <g transform="translate(953.8848,174.2298)" id="g5673">
        <path id="path5675" style="fill:#ffffff;fill-opacity:1;fill-rule:nonzero;stroke:none" d="m 0,0 0,1.853 -0.741,0 0,0.386 1.921,0 0,-0.387 -0.741,10e-4 0,-1.763 L 0.439,0 0,0 z" inkscape:connector-curvature="0"/>
      </g>
      <g transform="translate(956.2921,174.2298)" id="g5677">
        <path id="path5679" style="fill:#ffffff;fill-opacity:1;fill-rule:nonzero;stroke:none" d="m 0,0 0,2.239 1.65,0 0,-0.387 -1.21,0 0,-0.519 1.159,0 0,-0.371 -1.159,0 0,-0.574 1.21,0 L 1.65,0 0,0 z" inkscape:connector-curvature="0"/>
      </g>
      <g transform="translate(960.045,174.2141)" id="g5681">
        <path id="path5683" style="fill:#ffffff;fill-opacity:1;fill-rule:nonzero;stroke:none" d="m 0,0 -0.001,0 c -0.225,0 -0.416,0.064 -0.552,0.193 -0.133,0.132 -0.203,0.322 -0.203,0.544 l 0,0.798 c -0.003,0.308 0.117,0.517 0.318,0.619 0.197,0.103 0.446,0.117 0.728,0.118 l 0.214,0 C 0.752,2.272 0.937,2.224 1.06,2.101 1.182,1.976 1.218,1.8 1.218,1.587 l 0,-0.156 -0.439,0 0,0.091 0,0.057 C 0.78,1.719 0.759,1.793 0.728,1.825 0.7,1.856 0.628,1.886 0.467,1.884 l -0.147,0 C 0.12,1.884 -0.025,1.875 -0.123,1.849 -0.221,1.822 -0.257,1.791 -0.286,1.73 L -0.315,1.542 -0.316,0.977 c 0,-0.174 0.004,-0.311 0.028,-0.402 l 0.119,-0.158 c 0.046,-0.019 0.117,-0.031 0.217,-0.03 l 0.308,0 C 0.51,0.386 0.619,0.394 0.685,0.413 l 0.104,0.083 0.021,0.146 0,0.254 0.438,0 0,-0.283 C 1.252,0.359 1.147,0.18 0.976,0.096 0.807,0.009 0.598,0.001 0.365,0 L 0,0" inkscape:connector-curvature="0"/>
      </g>
      <g transform="translate(964.211,174.2298)" id="g5685">
        <path id="path5687" style="fill:#ffffff;fill-opacity:1;fill-rule:nonzero;stroke:none" d="m 0,0 0,0.947 -1.158,0 0,-0.947 -0.44,0 0,2.239 0.44,0 0,-0.906 1.158,0 0,0.906 0.44,0 L 0.44,0 0,0 z" inkscape:connector-curvature="0"/>
      </g>
      <g id="g6057"/>
    </g>
  </g>
</svg>